<svg xmlns="http://www.w3.org/2000/svg" width="1024" height="395" viewBox="0 0 1024 395"><title>day-of-giving-logo-horizontal</title><path d="M124.6 352.9a93.3 93.3 0 0 0 20.1-1.9 98.2 98.2 0 0 0 16.5-5.2v-35.8h-23.3q-5.2 0-8.1-2.8a9.2 9.2 0 0 1-2.9-7v-30h83.9v99.6a123.4 123.4 0 0 1-18.9 11.4 121.5 121.5 0 0 1-20.9 7.8 155.4 155.4 0 0 1-23.6 4.5 234.4 234.4 0 0 1-27 1.5 123.6 123.6 0 0 1-47.9-9.1 114.7 114.7 0 0 1-63.4-63.5 124.2 124.2 0 0 1-9.1-48q0-26.4 8.7-48.5a109.1 109.1 0 0 1 25-38.1 113.5 113.5 0 0 1 39.3-24.9q23.1-8.9 51.6-8.9a150.3 150.3 0 0 1 27.7 2.4 135.9 135.9 0 0 1 23.9 6.6 110.1 110.1 0 0 1 20 10 108 108 0 0 1 16.2 12.6l-15.9 24.1a17.7 17.7 0 0 1-5.4 5.3 12.9 12.9 0 0 1-6.9 1.9 18.9 18.9 0 0 1-10-3.2q-6.5-3.9-12.2-6.7a75.3 75.3 0 0 0-11.7-4.6 77.2 77.2 0 0 0-12.6-2.6 124.1 124.1 0 0 0-14.9-.8 67.9 67.9 0 0 0-27.8 5.6 59.4 59.4 0 0 0-21 15.3 69.2 69.2 0 0 0-13.4 23.7 95.6 95.6 0 0 0-4.6 30.8q0 18.8 5.2 33.3a71.6 71.6 0 0 0 14.3 24.6 60.8 60.8 0 0 0 21.7 15.3 70.2 70.2 0 0 0 27.4 5.3zM434.8 156.6h44q7.1 0 11.7 3.2a17.8 17.8 0 0 1 6.5 8.6l45.6 126.3q3.1 8.3 6.2 18t5.9 20.4q2.3-10.7 5.3-20.4t5.9-18l45.3-126.3a18.8 18.8 0 0 1 17.8-11.8h44.4l-94.6 235.8h-49.5zM844.6 156.6v42.1h-96.8v55h74.2v40.5h-74.2v56.2h96.8v42.1h-151.8v-235.9h151.8zM1007.2 204.5a20.5 20.5 0 0 1-5.1 5.8 11.4 11.4 0 0 1-6.9 1.9 16.8 16.8 0 0 1-8-2.3l-9.7-5.3a80.5 80.5 0 0 0-12.4-5.3 49.6 49.6 0 0 0-15.9-2.3q-15.4 0-22.9 6.6t-7.5 17.7a16.3 16.3 0 0 0 4.5 11.8 39.1 39.1 0 0 0 11.9 8.1 127.2 127.2 0 0 0 16.8 6.2q9.5 2.8 19.3 6.3a173.4 173.4 0 0 1 19.3 8.2 64.5 64.5 0 0 1 16.8 12 55.9 55.9 0 0 1 11.9 17.7q4.5 10.4 4.5 25.2a82.1 82.1 0 0 1-5.7 30.6 71.7 71.7 0 0 1-16.4 24.8 76.2 76.2 0 0 1-26.5 16.7q-15.8 6.1-35.9 6.1a114.8 114.8 0 0 1-22.4-2.3 132.7 132.7 0 0 1-22.1-6.4 127.7 127.7 0 0 1-20.1-9.8 85 85 0 0 1-16.4-12.6l16.2-25.6a13.1 13.1 0 0 1 5-4.7 14.2 14.2 0 0 1 7-1.8 18.5 18.5 0 0 1 9.8 3.1l11.2 6.8a90.8 90.8 0 0 0 14.3 6.8 53.7 53.7 0 0 0 19.1 3.1q14.9 0 23.1-6.6t8.3-20.8q0-8.3-4.5-13.4a35.1 35.1 0 0 0-11.9-8.6 109.8 109.8 0 0 0-16.8-6q-9.4-2.6-19.3-5.7a140.8 140.8 0 0 1-19.3-7.8 60.8 60.8 0 0 1-16.8-12.1 56.8 56.8 0 0 1-11.9-18.8q-4.5-11.2-4.5-27.8a65.9 65.9 0 0 1 5.3-25.9 66.9 66.9 0 0 1 15.7-22.5 77.3 77.3 0 0 1 25.4-15.8q15.1-5.9 34.5-5.9a129.4 129.4 0 0 1 21.1 1.7 111.3 111.3 0 0 1 19.5 5 107.1 107.1 0 0 1 17.2 7.9 79.5 79.5 0 0 1 14.3 10.4z" fill="#7a7967"/><path d="M384.5 0h17.4a7.3 7.3 0 0 1 4.6 1.4 8.3 8.3 0 0 1 2.6 3.5l27.3 70.7q1.4 3.4 2.6 7.6t2.4 8.7a99.4 99.4 0 0 1 4.6-16.3l27.1-70.7a8.3 8.3 0 0 1 2.6-3.4 6.9 6.9 0 0 1 4.5-1.5h17.4l-46.8 115.9h-19.5zM532.7 32.4a40 40 0 0 1 14.3 2.5 31.3 31.3 0 0 1 11.3 7.3 33.1 33.1 0 0 1 7.4 11.7 44.2 44.2 0 0 1 2.6 15.8 28.9 28.9 0 0 1-.2 3.7 5.9 5.9 0 0 1-.7 2.3 2.9 2.9 0 0 1-1.4 1.2 6 6 0 0 1-2.2.4h-50.9q.9 12.7 6.8 18.6t15.7 5.9a27.1 27.1 0 0 0 8.3-1.1 38.6 38.6 0 0 0 6.1-2.5l4.6-2.5a7.7 7.7 0 0 1 3.8-1.1 4.3 4.3 0 0 1 2.1.5 4.6 4.6 0 0 1 1.5 1.4l5.8 7.2a33 33 0 0 1-7.4 6.5 41.5 41.5 0 0 1-8.5 4.2 46.8 46.8 0 0 1-9.1 2.2 64.8 64.8 0 0 1-8.9.6 43.9 43.9 0 0 1-16-2.8 35.7 35.7 0 0 1-12.8-8.4 39.4 39.4 0 0 1-8.6-13.8 53.4 53.4 0 0 1-3.1-19 45.5 45.5 0 0 1 2.7-15.8 38 38 0 0 1 7.8-12.9 36.8 36.8 0 0 1 12.4-8.7 40.9 40.9 0 0 1 16.6-3.4zm.4 14.2q-8.7 0-13.5 4.9t-6.3 13.9h37.2a24.7 24.7 0 0 0-1-7.3 16.8 16.8 0 0 0-3.2-6 15.2 15.2 0 0 0-5.5-4 18.6 18.6 0 0 0-7.7-1.5zM584.4 115.9v-82.2h11.6q3 0 4.2 1.1a6.4 6.4 0 0 1 1.6 3.8l1.2 9.9a39.1 39.1 0 0 1 10.3-12 21.8 21.8 0 0 1 13.3-4.4 17.2 17.2 0 0 1 10.3 2.9l-2.6 14.8a3.1 3.1 0 0 1-1 2 3.5 3.5 0 0 1-2.2.6 13.4 13.4 0 0 1-3.3-.6 22.1 22.1 0 0 0-5.5-.6 16.8 16.8 0 0 0-10.6 3.4 26.2 26.2 0 0 0-7.5 10v51.2h-19.8zM649.9 115.9v-82.2h12.1a4.9 4.9 0 0 1 5.1 3.6l1.3 6.1a46.7 46.7 0 0 1 4.5-4.4 29 29 0 0 1 5.1-3.4 27.3 27.3 0 0 1 5.8-2.3 25.7 25.7 0 0 1 6.8-.8q7.8 0 12.8 4.2a25.3 25.3 0 0 1 7.5 11.2 25.2 25.2 0 0 1 4.8-7 26.3 26.3 0 0 1 6.3-4.8 29.2 29.2 0 0 1 7.3-2.7 35.2 35.2 0 0 1 7.8-.9 32.9 32.9 0 0 1 12.1 2.1 23.3 23.3 0 0 1 8.9 6.1 26.9 26.9 0 0 1 5.5 9.8 42.7 42.7 0 0 1 1.9 13.2v52.3h-19.9v-52.4q0-7.9-3.4-11.8t-10.1-4a15.1 15.1 0 0 0-5.7 1 13.4 13.4 0 0 0-4.6 3 13.7 13.7 0 0 0-3.1 4.9 19.2 19.2 0 0 0-1.1 6.8v52.3h-19.8v-52.2q0-8.3-3.3-12t-9.8-3.8a15.9 15.9 0 0 0-8 2.1 26.9 26.9 0 0 0-6.9 5.8v60.2h-19.9zM820 32.4a45.1 45.1 0 0 1 16.7 3 36 36 0 0 1 12.8 8.4 37.3 37.3 0 0 1 8.2 13.3 50.6 50.6 0 0 1 2.9 17.6 50.9 50.9 0 0 1-2.9 17.6 38.1 38.1 0 0 1-8.2 13.4 35.5 35.5 0 0 1-12.8 8.5 48.7 48.7 0 0 1-33.5 0 35.8 35.8 0 0 1-12.9-8.5 38.2 38.2 0 0 1-8.3-13.4 50.2 50.2 0 0 1-2.9-17.6 50 50 0 0 1 2.9-17.6 37.4 37.4 0 0 1 8.3-13.3 36.4 36.4 0 0 1 12.9-8.4 45.4 45.4 0 0 1 16.8-3zm0 69.5q10.3 0 15.2-6.9t4.9-20.2q0-13.3-4.9-20.3t-15.2-7q-10.4 0-15.4 7t-5 20.2q0 13.2 5 20.2t15.4 7zM876.1 115.9v-82.2h12.1a4.9 4.9 0 0 1 5.1 3.6l1.4 6.5a45.1 45.1 0 0 1 5.3-4.6 36.5 36.5 0 0 1 5.9-3.6 29.7 29.7 0 0 1 6.6-2.3 34.6 34.6 0 0 1 7.7-.8 29.5 29.5 0 0 1 11.8 2.2 23.6 23.6 0 0 1 8.7 6.4 28.2 28.2 0 0 1 5.3 9.9 41.9 41.9 0 0 1 1.8 12.6v52.3h-19.9v-52.3q0-7.5-3.5-11.7t-10.4-4.1a20.6 20.6 0 0 0-9.6 2.3 34.5 34.5 0 0 0-8.5 6.3v59.5h-19.8zM994.2 117.2q-10.7 0-16.4-6.1t-5.8-16.7v-45.9h-8.3a3.8 3.8 0 0 1-3.9-4.2v-7.8l13.2-2.2 4.2-22.4a4 4 0 0 1 1.5-2.5 4.7 4.7 0 0 1 2.9-.9h10.3v25.9h21.6v14.1h-21.7v44.6a8.7 8.7 0 0 0 1.9 6 6.5 6.5 0 0 0 5.1 2.2 9.3 9.3 0 0 0 3.1-.4l2.2-.9 1.6-.9a2.8 2.8 0 0 1 1.4-.4 2.3 2.3 0 0 1 1.4.4 6.8 6.8 0 0 1 1.2 1.3l5.9 9.6a30 30 0 0 1-9.9 5.5 37 37 0 0 1-11.5 1.7zM453.6 381.9c-22-13.5-39.7-32.9-54-53.9h38.4c4.5 0 6-6.9 2.1-9.3-20.1-12.3-36.1-29.7-48.9-49.7h35.3c3.9 0 5.3-5.6 1.8-7.7-20-12.3-35.5-30.3-47.4-50.3h30.6c3.2 0 4.3-4.8 1.5-6.6-19.4-11.9-33.5-31.4-43.8-50.4h27.4c2.5 0 3.4-4 1.2-5.4-33.6-20.6-47.2-68-52-91.7a2.4 2.4 0 0 0-4.8-.1c-4.9 23.8-18.4 71.3-52 91.8-2.2 1.4-1.3 5.4 1.2 5.4h27.4c-10.3 19-24.4 38.6-43.8 50.4-2.8 1.7-1.7 6.6 1.5 6.6h30.7c-11.9 20-27.4 38.1-47.4 50.3-3.5 2.1-2.1 7.7 1.8 7.7h35.3c-12.8 20-28.9 37.4-49 49.7-3.9 2.4-2.4 9.3 2.1 9.3h38.4c-14.3 21-32 40.5-54 53.9-4.5 2.7-2.7 10.5 2.4 10.5h215.6c5.1 0 6.8-7.7 2.4-10.5z" fill="#4d6a47"/></svg>